<svg id="레이어_1" data-name="레이어 1" xmlns="http://www.w3.org/2000/svg" viewBox="0 0 826.52 239.18"><defs><style>.cls-1,.cls-3{fill:#ffb2be;}.cls-2{fill:#1e1412;}.cls-3,.cls-4{stroke:#000;stroke-miterlimit:10;}.cls-3{stroke-width:8.64px;}.cls-4{fill:#c4cef8;stroke-width:8.16px;}</style></defs><path class="cls-1" d="M743.46,125.49c-7,11.75-18.35,24.27-32.16,19s-16.92-28.46-6.21-37.78,13.36-10.62,29.36-13.09S750.47,113.73,743.46,125.49Z"/><circle class="cls-2" cx="722.75" cy="70.91" r="7.22"/><path class="cls-2" d="M747.64,78.12a7.22,7.22,0,1,0-7.22-7.21A7.22,7.22,0,0,0,747.64,78.12Z"/><path class="cls-2" d="M764.18,125.28a44,44,0,0,1-5.35,6.56q-10.27,10.5-20.47,13.27a160.4,160.4,0,0,0,7.7-23.11,85.79,85.79,0,0,0,2-9.35,47.66,47.66,0,0,0,.61-6.74,6,6,0,0,0-.93-3.74c-.3-.37-.85-.38-1.24-.63a162.74,162.74,0,0,0,17.21-7,3.76,3.76,0,0,0-2.64-7l-.08,0c-9.61,2.79-19.41,5-28.82,5.23A43.64,43.64,0,0,1,719,91.29a18.63,18.63,0,0,1-5-2.3,12.36,12.36,0,0,1-1.66-1.44c-.27-.25-1-1.46-.33-.54a8.52,8.52,0,1,0-15,8.16,17.51,17.51,0,0,0,4.83,5.07,29.91,29.91,0,0,0,4.72,2.77c.26.11.52.18.78.28a55.3,55.3,0,0,0-4.85,3.58,69.28,69.28,0,0,0-14.26,16.2,51.83,51.83,0,0,0-4,7.69,39.31,39.31,0,0,1-6.58,6,29.66,29.66,0,0,1-13,5.32q8-11.49,8-22.33a26.22,26.22,0,0,0-1.14-8.35q-3.71-11-18.12-11-9.06,0-18.62,5.64,7.06-15.19,21.76-38.24A6.17,6.17,0,0,0,651,64.93a7,7,0,0,0-5.56,2.35,273.87,273.87,0,0,0-18,23.83c-13.77,19.75-21.76,34.38-24.13,44-.63.5-1.18,1.12-1.84,1.58a29.58,29.58,0,0,1-13,5.32q8-11.49,8-22.33a26.22,26.22,0,0,0-1.14-8.35q-3.72-11-18.13-11-9.06,0-18.62,5.64,7.07-15.19,21.76-38.24a6.15,6.15,0,0,0-5.63-2.85,7,7,0,0,0-5.57,2.35,275.9,275.9,0,0,0-18,23.83c-13.79,19.78-21.77,34.42-24.14,44.08-.36.29-.67.66-1,.93q-6.5,4.78-11.77,4.78-6.06,0-6.07-8.56a35.2,35.2,0,0,1,3.22-13.62,37.5,37.5,0,0,1,9.84-14.13,14.6,14.6,0,0,0-1.64-1.35q-4.42-3.36-7-2.43-8,3-17.62,14.77t-12.49,23q-3.92,2.35-10.77,2.35t-6.92-8.27q0-6.85,5.64-15.34a46.78,46.78,0,0,1,12.05-12.56c-2.28-2.85-4.33-4.28-6.13-4.28q-5,0-13.13,6.42a63.52,63.52,0,0,0-14.55,16.27A48.07,48.07,0,0,0,443.1,135c-.43.35-.8.78-1.24,1.11q-6.5,4.78-11.77,4.78-4.79,0-4.78-7.49c0-2.42,1.31-6.47,3.92-12.12q1.57-3.29,3.07-6.35a24.78,24.78,0,0,0,2-5.5,5.32,5.32,0,0,0-.32-3.89q-.86-1.45-5.06-1.46a41.5,41.5,0,0,0-10.35,1.64A80.72,80.72,0,0,0,385,123.85q3-8.26,6.07-15a78.14,78.14,0,0,0,17.33-8.56,88,88,0,0,0,8.1-5.78,54.83,54.83,0,0,0,6.63-6.21,32.67,32.67,0,0,0,4.5-6.24,14.45,14.45,0,0,0,1.68-7,11.61,11.61,0,0,0-3.22-7.6,8.58,8.58,0,0,0-6.7-3.49q-5.14,0-15.91,8.77a174.49,174.49,0,0,0-31.68,34.53c-6.87,9.71-11.35,18.2-14,25.74-.86.82-1.66,1.7-2.59,2.44a47.4,47.4,0,0,1-30.18,10.27q-16.68,0-27-9.7-8.93-8.34-8.92-21.12t8.27-26a69.78,69.78,0,0,1,20.37-21,57.29,57.29,0,0,1,12.59-6.31,34.48,34.48,0,0,1,11.13-2.32q4.57,0,6.6,1.32a4.67,4.67,0,0,1,2,4.24q0,3.93-3.86,8.56a12.46,12.46,0,0,0,1.72,1.5q5.77,4.35,8.63,4.35c2,0,4.21-1.23,6.49-3.71a15.1,15.1,0,0,0,2.71-4.24,14.76,14.76,0,0,0,1.07-5.89,10.9,10.9,0,0,0-1.78-6.13q-5-7.84-18.91-7.85-13.69,0-28.89,6.42A98.49,98.49,0,0,0,303.14,65a107.38,107.38,0,0,0-13.06,9.49,101.77,101.77,0,0,0-11.31,11.24,81.35,81.35,0,0,0-8.88,12.55,64.73,64.73,0,0,0-5.81,13.49A51.22,51.22,0,0,0,262,126.56a43.84,43.84,0,0,0,2.42,14.7,35.6,35.6,0,0,0,16.63,19.91q11.06,6.2,25.47,6.2a69.06,69.06,0,0,0,42-13.84,60.33,60.33,0,0,0,6.85-6c.56,10.52,5.56,16,15.33,16q6.21,0,6.21-2.85a114.24,114.24,0,0,1,3.5-21.91q5.06-7.27,17.4-14.84,11.64-7.12,17.34-7.13.49,0-3.35,4.78-12.49,15.56-12.49,25.9,0,8.06,3.53,12.38t11.95,4.31q8.42,0,17.55-6.35a52.23,52.23,0,0,0,7.64-6.38c.88-.89,1.56-1.81,2.37-2.71.71,3.81,2,7.19,4.55,9.66a17.15,17.15,0,0,0,6.17,3.82,21,21,0,0,0,7.27,1.32,26,26,0,0,0,6.67-.79,46.88,46.88,0,0,0,16.56-8.06q4.13,8.85,16.55,8.85,8.21,0,16.83-6.14a55.75,55.75,0,0,0,7.28-6.27c1-1.05,1.84-2.13,2.78-3.19a20,20,0,0,0,5.85,10q6.29,5.64,15.91,5.64h.14c24.51,0,42.49-5.54,54.24-16.37A20.15,20.15,0,0,0,609.23,158q6.27,5.64,15.91,5.64h.14q38.9,0,56.33-18.22c.31,5,1.84,9,5,11.87a17.59,17.59,0,0,0,12.2,4.42q11.13,0,23.69-11.77a80.23,80.23,0,0,1-13.27,16.63,33.74,33.74,0,0,1-6.53,4.78,12.72,12.72,0,0,1-6,1.71,25,25,0,0,1-5.42-.57q-5.85-1.37-14.12-6.92-4.42,1.71-8.28,7.84a11.94,11.94,0,0,0-2.07,6.35q0,8,7.56,13.77a27.06,27.06,0,0,0,7.57,3.93,28.28,28.28,0,0,0,9.13,1.42,21.8,21.8,0,0,0,10.34-2.92q15-8,28.75-33.25a45.77,45.77,0,0,0,21.33-10.56,54.64,54.64,0,0,0,8.6-9.45,49.21,49.21,0,0,0,5.6-9.49,19.57,19.57,0,0,0,1.71-5.24Q767.39,125.07,764.18,125.28ZM406.55,81.62a41.62,41.62,0,0,1,4.63-5.35c1.38-1.29,2.51-1.93,3.39-1.93s1.6.61,2.14,1.82a9.45,9.45,0,0,1,.82,4q0,4.35-6.63,10.35a63.67,63.67,0,0,1-15.84,10A130.41,130.41,0,0,1,406.55,81.62Zm172.57,45.8a32.17,32.17,0,0,1-4.63,5.17,36.66,36.66,0,0,1-5.57,4.18,29.81,29.81,0,0,1-6,2.81,18.84,18.84,0,0,1-6,1,6.12,6.12,0,0,1-4.82-2.11,7.55,7.55,0,0,1-1.85-5.17,38.52,38.52,0,0,1,.93-7.56,31.41,31.41,0,0,1,10.13-12.49,28.2,28.2,0,0,1,6.85-4,19,19,0,0,1,7.17-1.47,8.64,8.64,0,0,1,6.38,3,7.24,7.24,0,0,1,1.71,5.21C583.4,119.64,582,123.43,579.12,127.42Zm76.34,0a32.24,32.24,0,0,1-4.64,5.17,36.58,36.58,0,0,1-5.56,4.18,29.63,29.63,0,0,1-6,2.81,18.74,18.74,0,0,1-6,1,6.11,6.11,0,0,1-4.82-2.11,7.51,7.51,0,0,1-1.86-5.17,38.52,38.52,0,0,1,.93-7.56,31.5,31.5,0,0,1,10.13-12.49,28.39,28.39,0,0,1,6.85-4,19.08,19.08,0,0,1,7.17-1.47,8.66,8.66,0,0,1,6.39,3,7.24,7.24,0,0,1,1.71,5.21C659.74,119.64,658.31,123.43,655.46,127.42Zm69.84,3.85q-9.13,9.28-15.77,9.28-6.42,0-6.42-11.77,0-5.64,6.85-16.77a36.46,36.46,0,0,1,5.26-6.54c.27,0,.55.14.82.17a45.49,45.49,0,0,0,5.56.22c0,.35,0,.7-.06,1a27.74,27.74,0,0,1-1.06,4.81,40.83,40.83,0,0,1-4.58,9.53,3.09,3.09,0,0,0,.26,3.69,3,3,0,0,0,4.26.23,48.22,48.22,0,0,0,8.21-9.45,37.52,37.52,0,0,0,3.12-5.86,31.86,31.86,0,0,0,1.42-4.76l.27,0c1.88-.35,3.7-.83,5.52-1.3-.2,2.27-.4,4.55-.67,6.43A52.1,52.1,0,0,1,725.3,131.27Z"/><path d="M110.53,142.37c-.89.52-20,12.24-18.84,30.9A29.56,29.56,0,0,0,83.45,175a19.22,19.22,0,0,0-5.86,3.24c-2.34,2-4.29,5.17-3.06,8.37s4.32,3.63,7.25,4.05c2.35.35,4.7.76,7.06.92,4.77.32,10-.31,13.65-3.67,2.36-2.15,4.12-5,3.94-8.31a6.87,6.87,0,0,0-3.22-5.27c-2.14-12.78,12.93-22.2,13.09-22.29a5.61,5.61,0,0,0-5.77-9.63Z"/><path d="M217.92,180.07c-1.25-2.12-3.79-3-6-3.69a32.88,32.88,0,0,0-4-.92,17.49,17.49,0,0,0-2.16-1.09,19.79,19.79,0,0,0-3.4-1c-5.54-27-22.73-31.45-23.48-31.63a5.57,5.57,0,0,0-6.68,4.08,5.66,5.66,0,0,0,4,6.82c.49.14,11.56,3.57,15.4,24.1a5.47,5.47,0,0,0-.66.53,6.59,6.59,0,0,0-.57,7.58c2.35,4,7.85,5,12.11,5.33a32,32,0,0,0,6.78-.18,15.63,15.63,0,0,0,6.7-2.14A5.85,5.85,0,0,0,217.92,180.07Z"/><path class="cls-3" d="M197.3,118.32v-.06c0-17.11-23.2-31-51.82-31s-51.82,13.88-51.82,31v5.5c0,17.11,23.2,31,51.82,31s51.82-13.88,51.82-31v-5.44Z"/><ellipse class="cls-4" cx="145.48" cy="103.41" rx="51.82" ry="32.08"/><path d="M98.11,82a5.62,5.62,0,0,0-7.51-2.59c-5.07,2.47-9.35,3.09-12.72,1.82-4.21-1.57-6-5.78-6.22-6.2-3.77-7.55,2.27-13.45,3-14.12a6,6,0,0,0,.53-.71,12.47,12.47,0,0,0,6.87-2.87c3.33-2.94,4.48-8.41,1.87-12-2.81-3.88-8.72-4.26-13.06-2.23a8.06,8.06,0,0,0-3.31,2.56,7.23,7.23,0,0,0-.71,6c.08.31.25.58.36.89l0,0c-4.62,4.11-11.73,15.14-5.75,27.05a22.71,22.71,0,0,0,12.3,12.06,21.47,21.47,0,0,0,7.87,1.45,32,32,0,0,0,13.94-3.6A5.62,5.62,0,0,0,98.11,82Z"/><path d="M226.11,52.32a14.47,14.47,0,0,0,.06-2.63,8.29,8.29,0,0,0-3.34-6.19,11,11,0,0,0-5.32-1.41c-3.45-.25-7.57.2-9.28,3.21a7.11,7.11,0,0,0-.75,4.09A12,12,0,0,0,214,59a11.53,11.53,0,0,0,4,1.07c1.83,2.12,7.05,9.69-2.37,18.62-.06.06-5.92,5.93-16.73,1.5a5.62,5.62,0,0,0-4.26,10.4,31.3,31.3,0,0,0,11.95,2.5A24.64,24.64,0,0,0,223.5,86.7c5.72-5.41,8.69-11.44,8.83-17.92A24.73,24.73,0,0,0,226.11,52.32Z"/><path class="cls-3" d="M196.18,77.89l-.09-.26-.09-.25-.09-.26-.09-.25-.09-.25c0-.09-.07-.18-.1-.26a2.67,2.67,0,0,0-.09-.26l-.09-.25-.09-.26-.09-.25-.09-.26a2.5,2.5,0,0,1-.09-.25c0-.09-.07-.17-.09-.25s-.07-.17-.1-.26l-.09-.25-.09-.26-.09-.25-.09-.26-.09-.25c0-.09-.07-.17-.1-.26a2.5,2.5,0,0,0-.09-.25,2.67,2.67,0,0,0-.09-.26l-.09-.26-.09-.25-.09-.25-.09-.26a2.5,2.5,0,0,1-.09-.25c0-.09-.07-.17-.1-.26a2.5,2.5,0,0,0-.09-.25l-.09-.26-.09-.25-.09-.25c0-.09-.07-.18-.09-.26a2.67,2.67,0,0,1-.09-.26L193,69a1.84,1.84,0,0,0-.09-.25,2,2,0,0,0-.09-.26l-.09-.26-.09-.25a2.67,2.67,0,0,1-.09-.26,2.5,2.5,0,0,1-.09-.25c0-.09-.07-.17-.1-.26a2.5,2.5,0,0,0-.09-.25,1.84,1.84,0,0,0-.09-.25c0-.09-.06-.18-.09-.27l-.09-.24-.09-.26a2.67,2.67,0,0,1-.09-.26l-.1-.25a1.84,1.84,0,0,0-.09-.25c-4.35-14.15-23.35-24.8-46.13-24.8S103.7,51,99.34,65.15c0,.08-.06.16-.09.25a2.5,2.5,0,0,1-.09.25l-.09.26-.09.26a2.34,2.34,0,0,0-.09.24c0,.09-.07.18-.09.27s-.07.16-.1.25a2.5,2.5,0,0,1-.09.25,2.67,2.67,0,0,1-.09.26l-.09.25-.09.26a2.67,2.67,0,0,0-.09.26,2.34,2.34,0,0,0-.09.24l-.1.27c0,.08-.06.16-.09.25a2.5,2.5,0,0,1-.09.25l-.09.26-.09.26-.09.25a2.5,2.5,0,0,0-.09.25,2.67,2.67,0,0,0-.09.26l-.1.25a2.67,2.67,0,0,1-.09.26l-.09.25-.09.26-.09.25-.09.25c0,.09-.07.18-.1.26a2.67,2.67,0,0,1-.09.26,2.5,2.5,0,0,1-.09.25l-.09.26-.09.25-.09.26a2.5,2.5,0,0,0-.09.25,2.67,2.67,0,0,0-.09.26c0,.08-.07.16-.1.25l-.09.26-.09.25-.09.25-.09.26-.09.25a2.67,2.67,0,0,0-.09.26l-.1.25a2.67,2.67,0,0,1-.09.26l-.09.26-.09.25-.09.25-.09.26a2.5,2.5,0,0,0-.09.25c0,.09-.07.17-.1.26a19.3,19.3,0,0,0-1.11,6.39c0,17.12,23.2,31,51.82,31s51.82-13.87,51.82-31A19.06,19.06,0,0,0,196.18,77.89Z"/><path d="M136.16,69a3.38,3.38,0,1,0-3.38-3.38A3.38,3.38,0,0,0,136.16,69Z"/><path d="M154.79,69a3.38,3.38,0,1,0-3.38-3.38A3.38,3.38,0,0,0,154.79,69Z"/><path d="M165.51,76.25c.37-.43.81-.76,1.16-1.22,1.06-1.39.22-3.62-1.16-4.43a3.32,3.32,0,0,0-4.43,1.16A19,19,0,0,1,146.29,79a45,45,0,0,1-10.17-.68c-2.61-.56-5.24-1.8-5.91-4.59-1-4-7.23-2.34-6.25,1.72,2.28,9.47,13.77,10,21.66,10a26.34,26.34,0,0,0,4-.45c0,.06,0,.1,0,.16,1.19,5,5.1,9,9.56,9.75,2.71.48,5.57.11,7.67-2.08a10.21,10.21,0,0,0,2.44-7.47A17.51,17.51,0,0,0,165.51,76.25Zm-1.06,10.53c0,.24-.09.49-.15.73s-.3.72-.07.24c-.13.28-.26.55-.41.82h0a3.24,3.24,0,0,1-.29.34c-.29.39.27-.11-.16.16a3.93,3.93,0,0,1-1.26.56,7.9,7.9,0,0,1-1.58,0c-.09,0-.72-.15-.2,0-.28-.07-.55-.12-.83-.2s-.54-.17-.81-.28l-.31-.14a11.6,11.6,0,0,1-1.29-.81,8.11,8.11,0,0,1-2.82-4.34c.62-.22,1.26-.41,1.87-.67.11.13.14.32.28.42l0,0a14,14,0,0,1,2.08,2.55l0,0a1.92,1.92,0,0,0,.61.76,1.71,1.71,0,0,0,.81.49,1.63,1.63,0,0,0,1,0,1.72,1.72,0,0,0,.89-.32,2.77,2.77,0,0,0,1.1-1.63c0-.24,0-.48.08-.72a3.11,3.11,0,0,0-.32-1.38c-.53-.82-1.09-1.64-1.69-2.4-.09-.12-.22-.2-.32-.32.47-.33,1-.57,1.43-.93.06.11,0,.23.12.34A17.33,17.33,0,0,1,164,83.32c.12.3.14.34.05.13.06.17.12.35.17.53s.15.53.21.81.07.36.1.55q0-.44,0,0c0,.24,0,.48,0,.72S164.44,86.76,164.45,86.78Z"/></svg>