<svg id="레이어_1" data-name="레이어 1" xmlns="http://www.w3.org/2000/svg" viewBox="0 0 549.06 452.78"><defs><style>.cls-1,.cls-3{fill:#ffb2be;}.cls-2{fill:#1e1412;}.cls-3,.cls-4{stroke:#000;stroke-miterlimit:10;}.cls-3{stroke-width:12.03px;}.cls-4{fill:#c4cef8;stroke-width:11.36px;}</style></defs><path class="cls-1" d="M500.54,349.37c-6.92,11.62-18.13,24-31.77,18.81s-16.72-28.12-6.13-37.32,13.19-10.5,29-12.94S507.47,337.76,500.54,349.37Z"/><circle class="cls-2" cx="480.09" cy="295.45" r="7.13"/><path class="cls-2" d="M504.68,302.58a7.13,7.13,0,1,0-7.14-7.13A7.13,7.13,0,0,0,504.68,302.58Z"/><path class="cls-2" d="M521,349.17a44.09,44.09,0,0,1-5.28,6.49Q505.59,366,495.51,368.77a159.53,159.53,0,0,0,7.61-22.84,88.62,88.62,0,0,0,1.94-9.23,48,48,0,0,0,.6-6.67,5.92,5.92,0,0,0-.92-3.7c-.3-.36-.85-.37-1.23-.61a163.27,163.27,0,0,0,17-6.87,3.71,3.71,0,0,0-2.61-6.93l-.08,0c-9.49,2.76-19.18,4.91-28.48,5.17a42.94,42.94,0,0,1-12.94-1.52,18.49,18.49,0,0,1-5-2.27,12.72,12.72,0,0,1-1.64-1.43c-.27-.24-1-1.44-.32-.53a8.42,8.42,0,0,0-14.79,8.06,17.57,17.57,0,0,0,4.78,5,29.89,29.89,0,0,0,4.66,2.73c.26.11.51.17.77.28a54.06,54.06,0,0,0-4.79,3.54A68.06,68.06,0,0,0,446,347a50.12,50.12,0,0,0-3.93,7.6,38.8,38.8,0,0,1-6.51,5.89,29.38,29.38,0,0,1-12.83,5.26q7.9-11.36,7.9-22.07a25.84,25.84,0,0,0-1.13-8.24q-3.66-10.86-17.9-10.86-9,0-18.4,5.57,7-15,21.5-37.78a6.09,6.09,0,0,0-5.57-2.82,6.94,6.94,0,0,0-5.5,2.33,269.29,269.29,0,0,0-17.83,23.54c-13.61,19.52-21.5,34-23.84,43.51-.62.5-1.17,1.11-1.82,1.56a29.38,29.38,0,0,1-12.83,5.26q7.91-11.36,7.9-22.07a25.84,25.84,0,0,0-1.13-8.24q-3.66-10.86-17.9-10.86-9,0-18.4,5.57,7-15,21.5-37.78a6.09,6.09,0,0,0-5.57-2.82,6.94,6.94,0,0,0-5.5,2.33,269.29,269.29,0,0,0-17.83,23.54c-13.63,19.54-21.52,34-23.85,43.55-.36.29-.67.65-1,.93q-6.42,4.71-11.63,4.72-6,0-6-8.46a34.84,34.84,0,0,1,3.17-13.46,37.06,37.06,0,0,1,9.72-14,13.35,13.35,0,0,0-1.62-1.34q-4.37-3.31-6.9-2.4-7.9,3-17.41,14.59t-12.34,22.7q-3.87,2.33-10.64,2.33t-6.84-8.18q0-6.76,5.57-15.15a46.14,46.14,0,0,1,11.91-12.41c-2.25-2.82-4.28-4.23-6.06-4.23q-4.93,0-13,6.35a62.72,62.72,0,0,0-14.38,16.07,47.59,47.59,0,0,0-5.33,11.72c-.42.35-.79.78-1.23,1.11q-6.41,4.71-11.63,4.72-4.71,0-4.72-7.4,0-3.6,3.88-12,1.54-3.24,3-6.27a24.52,24.52,0,0,0,2-5.43,5.23,5.23,0,0,0-.32-3.84q-.84-1.44-5-1.44a40.79,40.79,0,0,0-10.22,1.62,79.57,79.57,0,0,0-33.2,17.9q3-8.17,6-14.87a77.2,77.2,0,0,0,17.13-8.46,89.14,89.14,0,0,0,8-5.71,55,55,0,0,0,6.55-6.13,31.87,31.87,0,0,0,4.44-6.17,14.24,14.24,0,0,0,1.66-6.91A11.43,11.43,0,0,0,187,292a8.49,8.49,0,0,0-6.63-3.46q-5.07,0-15.72,8.67a172.31,172.31,0,0,0-31.29,34.12c-6.79,9.59-11.22,18-13.8,25.43-.85.81-1.64,1.68-2.56,2.41a46.81,46.81,0,0,1-29.81,10.15q-16.5,0-26.72-9.59a27.34,27.34,0,0,1-8.81-20.86q0-12.54,8.18-25.73A69,69,0,0,1,80,292.43a56.84,56.84,0,0,1,12.44-6.24,34.09,34.09,0,0,1,11-2.29c3,0,5.18.44,6.52,1.3a4.64,4.64,0,0,1,2,4.2q0,3.87-3.81,8.46a13.33,13.33,0,0,0,1.69,1.48q5.72,4.29,8.53,4.3,3,0,6.42-3.67a15,15,0,0,0,2.68-4.19,14.62,14.62,0,0,0,1-5.82,10.76,10.76,0,0,0-1.76-6.06q-4.93-7.75-18.68-7.75-13.53,0-28.54,6.34a96.29,96.29,0,0,0-14,7.16A105.5,105.5,0,0,0,52.6,299a100.11,100.11,0,0,0-11.17,11.1,79.48,79.48,0,0,0-8.77,12.41,63.69,63.69,0,0,0-5.75,13.32,50.79,50.79,0,0,0-2,14.59A43.12,43.12,0,0,0,27.27,365a35.15,35.15,0,0,0,16.42,19.67,50.6,50.6,0,0,0,25.16,6.13,68.24,68.24,0,0,0,41.52-13.68,58.93,58.93,0,0,0,6.77-5.92c.56,10.4,5.49,15.79,15.15,15.79q6.14,0,6.13-2.82a113,113,0,0,1,3.46-21.64q5-7.19,17.19-14.66,11.49-7.05,17.13-7.05.5,0-3.31,4.73-12.33,15.36-12.34,25.58,0,8,3.49,12.23t11.81,4.27q8.33,0,17.34-6.28a51,51,0,0,0,7.54-6.31c.87-.87,1.54-1.78,2.35-2.67.7,3.77,2,7.1,4.49,9.55a17,17,0,0,0,6.1,3.77,20.73,20.73,0,0,0,7.19,1.3,26.37,26.37,0,0,0,6.59-.77,46.5,46.5,0,0,0,16.35-8q4.08,8.75,16.35,8.74,8.12,0,16.64-6.06a56.54,56.54,0,0,0,7.19-6.2c1-1,1.81-2.11,2.74-3.15a19.78,19.78,0,0,0,5.79,9.91q6.19,5.58,15.71,5.57h.15c24.21,0,42-5.47,53.58-16.17a19.88,19.88,0,0,0,6,10.6q6.19,5.58,15.71,5.57h.15q38.41,0,55.65-18c.3,4.92,1.82,8.93,5,11.73a17.4,17.4,0,0,0,12.06,4.37q11,0,23.4-11.63a79.35,79.35,0,0,1-13.11,16.42,32.5,32.5,0,0,1-6.45,4.72,12.59,12.59,0,0,1-6,1.7,24.31,24.31,0,0,1-5.35-.57q-5.79-1.33-14-6.83-4.36,1.68-8.18,7.75a11.78,11.78,0,0,0-2,6.27q0,7.91,7.47,13.61a27,27,0,0,0,7.47,3.87,27.92,27.92,0,0,0,9,1.41A21.5,21.5,0,0,0,459,419q14.81-7.89,28.41-32.84a45.28,45.28,0,0,0,21.08-10.44,53.73,53.73,0,0,0,8.49-9.34A48.19,48.19,0,0,0,522.5,357a19.25,19.25,0,0,0,1.69-5.18C524.19,349.9,523.14,349,521,349.17ZM167.67,306a41.06,41.06,0,0,1,4.59-5.28c1.36-1.27,2.47-1.91,3.34-1.91s1.58.6,2.12,1.8a9.41,9.41,0,0,1,.81,3.91q0,4.31-6.56,10.22a63,63,0,0,1-15.64,9.94A129.09,129.09,0,0,1,167.67,306Zm170.51,45.26a32.31,32.31,0,0,1-4.58,5.11,37,37,0,0,1-5.5,4.12,29.68,29.68,0,0,1-5.92,2.78,18.37,18.37,0,0,1-6,1,6,6,0,0,1-4.75-2.08,7.43,7.43,0,0,1-1.84-5.11,38.29,38.29,0,0,1,.92-7.48,31,31,0,0,1,10-12.33,27.57,27.57,0,0,1,6.77-3.91,18.72,18.72,0,0,1,7.08-1.45,8.55,8.55,0,0,1,6.31,3,7.15,7.15,0,0,1,1.69,5.15Q342.41,345.36,338.18,351.29Zm75.42,0A32.31,32.31,0,0,1,409,356.4a37,37,0,0,1-5.5,4.12,29.42,29.42,0,0,1-5.92,2.78,18.33,18.33,0,0,1-6,1,6,6,0,0,1-4.75-2.08,7.47,7.47,0,0,1-1.84-5.11,38.29,38.29,0,0,1,.92-7.48,31.06,31.06,0,0,1,10-12.33,27.57,27.57,0,0,1,6.77-3.91,18.72,18.72,0,0,1,7.08-1.45,8.55,8.55,0,0,1,6.31,3,7.15,7.15,0,0,1,1.69,5.15Q417.83,345.36,413.6,351.29Zm69,3.8q-9,9.17-15.58,9.17-6.34,0-6.34-11.64,0-5.56,6.76-16.56a36.79,36.79,0,0,1,5.19-6.46c.27,0,.55.14.81.17a44.49,44.49,0,0,0,5.5.21c0,.34,0,.7-.06,1a27.07,27.07,0,0,1-1.05,4.75,40.06,40.06,0,0,1-4.52,9.42,3,3,0,0,0,.26,3.65,3,3,0,0,0,4.21.23,48.29,48.29,0,0,0,8.11-9.34A37.92,37.92,0,0,0,489,333.9a33,33,0,0,0,1.41-4.7,2.06,2.06,0,0,1,.26,0c1.86-.35,3.65-.83,5.46-1.29-.2,2.24-.4,4.49-.67,6.35A51.54,51.54,0,0,1,482.61,355.09Z"/><path d="M225.51,173c-1.23.74-27.87,17-26.22,43a41.53,41.53,0,0,0-11.48,2.36,26.79,26.79,0,0,0-8.16,4.5c-3.26,2.85-6,7.2-4.26,11.66s6,5.05,10.09,5.65c3.27.48,6.54,1.05,9.84,1.27,6.64.45,13.86-.43,19-5.1,3.29-3,5.75-7,5.49-11.57a9.52,9.52,0,0,0-4.48-7.34c-3-17.8,18-30.91,18.23-31a7.82,7.82,0,0,0-8-13.42Z"/><path d="M375.05,225.5c-1.74-3-5.27-4.2-8.41-5.15a46.55,46.55,0,0,0-5.56-1.27,24.33,24.33,0,0,0-3-1.53,29.48,29.48,0,0,0-4.72-1.41c-7.73-37.59-31.66-43.8-32.7-44a7.74,7.74,0,0,0-9.3,5.67,7.89,7.89,0,0,0,5.54,9.51c.67.18,16.1,5,21.44,33.54a8.36,8.36,0,0,0-.92.75,9.18,9.18,0,0,0-.79,10.55c3.27,5.56,10.93,7,16.87,7.43a45.07,45.07,0,0,0,9.43-.26c3.22-.45,6.61-1.12,9.33-3C375.77,233.9,377.28,229.29,375.05,225.5Z"/><path class="cls-3" d="M346.33,139.51s0,0,0-.08c0-23.83-32.31-43.15-72.16-43.15S202,115.6,202,139.43c0,0,0,0,0,.08s0,.05,0,.07,0,0,0,.08,0,.05,0,.07,0,.05,0,.08,0,.05,0,.07,0,.05,0,.08,0,0,0,.07,0,.05,0,.08,0,0,0,.07,0,0,0,.08,0,.05,0,.07,0,0,0,.08,0,.05,0,.07,0,.05,0,.08,0,.05,0,.07,0,.05,0,.08,0,0,0,.07,0,.05,0,.08,0,0,0,.07,0,0,0,.08,0,.05,0,.07,0,0,0,.08,0,.05,0,.07,0,.05,0,.08,0,.05,0,.07,0,.05,0,.08,0,0,0,.07,0,.05,0,.08,0,0,0,.07,0,0,0,.08,0,.05,0,.07,0,0,0,.08,0,.05,0,.07,0,.05,0,.08,0,.05,0,.07,0,.05,0,.08,0,0,0,.07,0,.05,0,.08,0,0,0,.07,0,0,0,.08,0,.05,0,.07,0,0,0,.08,0,.05,0,.07,0,.05,0,.08,0,.05,0,.07,0,.05,0,.08,0,0,0,.07,0,.05,0,.08,0,0,0,.07,0,0,0,.08,0,.05,0,.07,0,0,0,.08,0,.05,0,.07,0,.05,0,.08,0,.05,0,.07,0,.05,0,.08,0,0,0,.07,0,.05,0,.08,0,0,0,.07,0,0,0,.08,0,.05,0,.07,0,0,0,.08,0,.05,0,.07,0,.05,0,.08,0,.05,0,.07,0,.05,0,.08,0,0,0,.07,0,.05,0,.08,0,0,0,.07,0,0,0,.08,0,.05,0,.07,0,0,0,.08,0,.05,0,.07,0,.05,0,.08,0,.05,0,.07,0,.05,0,.08,0,0,0,.07,0,.05,0,.08,0,0,0,.07,0,0,0,.08,0,.05,0,.07,0,0,0,.08,0,.05,0,.07,0,.05,0,.08,0,.05,0,.07,0,.05,0,.08,0,0,0,.07,0,.05,0,.08,0,0,0,.07,0,0,0,.08,0,.05,0,.07,0,0,0,.08,0,.05,0,.07,0,.05,0,.08,0,.05,0,.07,0,.05,0,.08,0,0,0,.07,0,.05,0,.08,0,0,0,.07,0,0,0,.07,0,.05,0,.08c0,23.83,32.31,43.15,72.16,43.15s72.16-19.32,72.16-43.15c0,0,0-.05,0-.08s0,0,0-.07,0-.05,0-.07,0-.05,0-.08,0-.05,0-.07,0-.05,0-.08,0,0,0-.07,0-.05,0-.08,0,0,0-.07,0,0,0-.08,0-.05,0-.07,0,0,0-.08,0-.05,0-.07,0-.05,0-.08,0-.05,0-.07,0-.05,0-.08,0,0,0-.07,0-.05,0-.08,0,0,0-.07,0,0,0-.08,0-.05,0-.07,0,0,0-.08,0-.05,0-.07,0-.05,0-.08,0-.05,0-.07,0-.05,0-.08,0,0,0-.07,0-.05,0-.08,0,0,0-.07,0,0,0-.08,0-.05,0-.07,0,0,0-.08,0-.05,0-.07,0-.05,0-.08,0-.05,0-.07,0-.05,0-.08,0,0,0-.07,0-.05,0-.08,0,0,0-.07,0,0,0-.08,0-.05,0-.07,0,0,0-.08,0-.05,0-.07,0-.05,0-.08,0-.05,0-.07,0-.05,0-.08,0,0,0-.07,0-.05,0-.08,0,0,0-.07,0,0,0-.08,0-.05,0-.07,0,0,0-.08,0-.05,0-.07,0-.05,0-.08,0-.05,0-.07,0-.05,0-.08,0,0,0-.07,0-.05,0-.08,0,0,0-.07,0,0,0-.08,0-.05,0-.07,0,0,0-.08,0-.05,0-.07,0-.05,0-.08,0-.05,0-.07,0-.05,0-.08,0,0,0-.07,0-.05,0-.08,0,0,0-.07,0,0,0-.08,0-.05,0-.07,0,0,0-.08,0-.05,0-.07,0-.05,0-.08,0-.05,0-.07,0-.05,0-.08,0,0,0-.07,0-.05,0-.08,0,0,0-.07,0,0,0-.08,0-.05,0-.07,0,0,0-.08,0-.05,0-.07,0-.05,0-.08,0-.05,0-.07,0-.05,0-.08,0,0,0-.07,0-.05,0-.08,0,0,0-.07,0,0,0-.08,0-.05,0-.07,0,0,0-.08,0-.05,0-.07,0-.05,0-.08,0-.05,0-.07,0-.05,0-.08,0,0,0-.07,0-.05,0-.08,0,0,0-.07,0,0,0-.08S346.33,139.53,346.33,139.51Z"/><ellipse class="cls-4" cx="274.18" cy="118.75" rx="72.16" ry="44.66"/><path d="M208.22,89a7.83,7.83,0,0,0-10.45-3.61c-7.07,3.45-13,4.31-17.72,2.54-5.86-2.19-8.4-8-8.66-8.64-5.25-10.5,3.16-18.72,4.17-19.66a7.09,7.09,0,0,0,.74-1,17.4,17.4,0,0,0,9.58-4c4.62-4.1,6.22-11.71,2.6-16.72-3.92-5.41-12.15-5.94-18.19-3.11a11.27,11.27,0,0,0-4.61,3.56,10.11,10.11,0,0,0-1,8.33c.12.43.36.82.51,1.23l-.07,0c-6.44,5.72-16.33,21.09-8,37.67.49,1.23,5.1,12.13,17.12,16.8a30.18,30.18,0,0,0,11,2c6.05,0,12.55-1.67,19.42-5A7.82,7.82,0,0,0,208.22,89Z"/><path d="M386.45,47.6a20.36,20.36,0,0,0,.09-3.66c-.34-3.36-1.83-6.76-4.65-8.61-2.16-1.42-4.83-1.78-7.41-2-4.81-.34-10.54.29-12.92,4.47a9.87,9.87,0,0,0-1.05,5.69,16.73,16.73,0,0,0,9,13.44,16.24,16.24,0,0,0,5.62,1.48c2.54,3,9.81,13.5-3.31,25.93-.08.08-8.24,8.26-23.29,2.09a7.83,7.83,0,0,0-5.94,14.48,43.74,43.74,0,0,0,16.65,3.48,34.39,34.39,0,0,0,23.58-8.94c8-7.53,12.09-15.92,12.29-25C395.39,58.44,388.46,49.83,386.45,47.6Z"/><path class="cls-3" d="M344.78,83.21l-.12-.36c0-.12-.09-.23-.13-.35s-.09-.24-.13-.35l-.13-.36-.12-.35-.13-.36c0-.12-.09-.24-.13-.35l-.12-.36-.13-.36c0-.11-.09-.23-.13-.35s-.09-.23-.13-.35-.08-.24-.13-.36-.08-.23-.12-.35l-.13-.36c0-.12-.09-.23-.13-.35l-.12-.36c0-.12-.09-.23-.13-.35l-.13-.36c0-.12-.09-.23-.12-.35l-.13-.36c0-.12-.09-.23-.13-.35s-.09-.24-.13-.35-.08-.24-.13-.37-.08-.23-.12-.34l-.13-.36-.13-.36c0-.12-.08-.23-.12-.35l-.13-.36c0-.12-.09-.23-.13-.35l-.13-.36c0-.12-.08-.23-.12-.35s-.09-.23-.13-.35l-.13-.36c0-.12-.09-.24-.12-.36s-.09-.23-.13-.35-.09-.23-.13-.35l-.13-.36c0-.12-.08-.24-.12-.36s-.09-.23-.13-.35l-.13-.36c0-.12-.09-.23-.12-.35l-.13-.36c0-.12-.09-.23-.13-.35s-.09-.23-.13-.35-.09-.24-.13-.37-.08-.23-.12-.34l-.13-.36-.13-.36c0-.12-.08-.23-.12-.35s-.09-.23-.13-.35c-6.07-19.7-32.52-34.53-64.24-34.53S216,45.77,209.94,65.47c0,.12-.09.23-.13.35s-.09.23-.12.35-.1.24-.13.36l-.13.36-.13.34c0,.13-.09.25-.13.37s-.08.23-.12.35-.09.23-.13.35l-.13.36c0,.12-.08.23-.12.35l-.13.36-.13.36c0,.11-.09.23-.12.34s-.09.25-.13.37-.09.23-.13.35-.09.24-.13.35l-.12.36-.13.36c0,.12-.09.23-.13.35s-.09.23-.12.35l-.13.36c0,.12-.09.23-.13.35l-.13.36c0,.12-.09.23-.12.35l-.13.36-.13.36c0,.11-.09.23-.12.34a3.3,3.3,0,0,0-.13.37c0,.11-.09.23-.13.35s-.09.23-.13.35l-.13.36-.12.35-.13.36c0,.12-.09.23-.13.35s-.09.24-.12.36-.09.23-.13.35l-.13.36c0,.12-.09.23-.13.35l-.12.36c0,.12-.09.23-.13.35s-.09.24-.13.35l-.13.36-.12.36c0,.11-.09.23-.13.35l-.13.36-.12.35-.13.36c0,.11-.09.23-.13.35s-.09.23-.13.35l-.12.36A26.78,26.78,0,0,0,202,92.12c0,23.83,32.31,43.15,72.16,43.15S346.34,116,346.34,92.12A26.78,26.78,0,0,0,344.78,83.21Z"/><path d="M261.21,70.81a4.71,4.71,0,1,0-4.71-4.71A4.71,4.71,0,0,0,261.21,70.81Z"/><path d="M287.15,70.81a4.71,4.71,0,1,0-4.71-4.71A4.71,4.71,0,0,0,287.15,70.81Z"/><path d="M302.07,80.93c.51-.6,1.13-1.06,1.62-1.69,1.47-1.95.3-5-1.62-6.18-2.32-1.35-4.69-.32-6.17,1.62a26.39,26.39,0,0,1-20.59,10,61.71,61.71,0,0,1-14.17-.93c-3.62-.79-7.29-2.51-8.22-6.4-1.36-5.64-10.07-3.25-8.7,2.4,3.17,13.18,19.16,14,30.15,14a39.23,39.23,0,0,0,5.57-.63c0,.08,0,.14,0,.22,1.66,6.9,7.11,12.46,13.32,13.57,3.77.68,7.76.16,10.68-2.89a14.2,14.2,0,0,0,3.39-10.4C307,88.73,304.77,84.63,302.07,80.93ZM300.6,95.59a9.29,9.29,0,0,1-.22,1c0,.15-.41,1-.09.33-.19.39-.36.77-.57,1.14s-.22.36,0,0c-.13.16-.26.32-.4.47-.41.54.37-.15-.23.23a5.4,5.4,0,0,1-1.76.77,10.19,10.19,0,0,1-2.19,0c-.13,0-1-.2-.28,0-.39-.1-.77-.17-1.15-.28a11.6,11.6,0,0,1-1.13-.39l-.43-.2a14.34,14.34,0,0,1-1.81-1.13,11.24,11.24,0,0,1-3.92-6c.87-.3,1.76-.56,2.6-.93.16.18.2.44.39.58l-.07-.06a19.36,19.36,0,0,1,2.9,3.55l0,0a2.82,2.82,0,0,0,.86,1.06,2.41,2.41,0,0,0,1.13.68,2.21,2.21,0,0,0,1.32.07,2.29,2.29,0,0,0,1.24-.45,3.83,3.83,0,0,0,1.53-2.27c0-.33.07-.67.11-1A4.18,4.18,0,0,0,298,90.9c-.74-1.15-1.51-2.28-2.35-3.34-.13-.17-.31-.28-.45-.45.66-.45,1.37-.79,2-1.3.09.16.06.33.17.48a24,24,0,0,1,2.56,4.49c.16.41.19.47.07.17.09.24.17.49.24.74s.2.75.28,1.13.1.51.14.76c0-.39,0-.38,0,0s0,.67,0,1C300.68,94.78,300.59,95.57,300.6,95.59Z"/></svg>