<svg id="레이어_1" data-name="레이어 1" xmlns="http://www.w3.org/2000/svg" viewBox="0 0 241.19 216.64"><defs><style>.cls-1{fill:#ffb2be;stroke-width:12.03px;}.cls-1,.cls-2{stroke:#000;stroke-miterlimit:10;}.cls-2{fill:#c4cef8;stroke-width:11.36px;}</style></defs><path d="M913.56,579.86c-1.23.74-27.87,17-26.22,43a41.53,41.53,0,0,0-11.48,2.36,26.79,26.79,0,0,0-8.16,4.5c-3.26,2.85-6,7.2-4.26,11.66s6,5.05,10.09,5.65c3.27.48,6.54,1.05,9.84,1.27,6.64.45,13.86-.43,19-5.1,3.29-3,5.75-7,5.49-11.57a9.52,9.52,0,0,0-4.48-7.34c-3-17.8,18-30.91,18.23-31a7.82,7.82,0,0,0-8-13.42Z" transform="translate(-841.99 -431.79)"/><path d="M1063.1,632.37c-1.74-3-5.27-4.2-8.41-5.15a46.55,46.55,0,0,0-5.56-1.27,24.33,24.33,0,0,0-3-1.53,29.18,29.18,0,0,0-4.72-1.41c-7.73-37.59-31.66-43.8-32.7-44a7.74,7.74,0,0,0-9.3,5.67,7.89,7.89,0,0,0,5.54,9.51c.68.18,16.1,5,21.44,33.55a7.27,7.27,0,0,0-.92.74,9.18,9.18,0,0,0-.79,10.55c3.27,5.56,10.93,7,16.87,7.43a45,45,0,0,0,9.43-.26c3.22-.45,6.61-1.12,9.33-3C1063.82,640.77,1065.33,636.16,1063.1,632.37Z" transform="translate(-841.99 -431.79)"/><path class="cls-1" d="M1034.38,546.38s0,0,0-.08c0-23.83-32.31-43.15-72.16-43.15s-72.16,19.32-72.16,43.15c0,0,0,.05,0,.08s0,0,0,.07,0,0,0,.08,0,.05,0,.07,0,0,0,.08,0,.05,0,.07,0,0,0,.08,0,0,0,.07,0,.05,0,.08,0,0,0,.07,0,.05,0,.08,0,0,0,.07,0,0,0,.08,0,.05,0,.07,0,0,0,.08,0,.05,0,.07,0,0,0,.08,0,0,0,.07,0,.05,0,.08,0,0,0,.07,0,.05,0,.08,0,0,0,.07,0,0,0,.08,0,.05,0,.07,0,0,0,.08,0,.05,0,.07,0,0,0,.08,0,0,0,.07,0,.05,0,.08,0,0,0,.07,0,.05,0,.08,0,0,0,.07,0,0,0,.08,0,.05,0,.07,0,0,0,.08,0,.05,0,.07,0,0,0,.08,0,0,0,.07,0,.05,0,.08,0,0,0,.07,0,.05,0,.08,0,0,0,.07,0,0,0,.08,0,.05,0,.07,0,0,0,.08,0,.05,0,.07,0,0,0,.08,0,0,0,.07,0,.05,0,.08,0,0,0,.07,0,.05,0,.08,0,0,0,.07,0,0,0,.08,0,.05,0,.07,0,0,0,.08,0,.05,0,.07,0,0,0,.08,0,0,0,.07,0,.05,0,.08,0,0,0,.07,0,.05,0,.08,0,0,0,.07,0,0,0,.08,0,.05,0,.07,0,0,0,.08,0,.05,0,.07,0,0,0,.08,0,0,0,.07,0,.05,0,.08,0,0,0,.07,0,.05,0,.08,0,0,0,.07,0,0,0,.08,0,.05,0,.07,0,0,0,.08,0,.05,0,.07,0,0,0,.08,0,0,0,.07,0,.05,0,.08,0,0,0,.07,0,.05,0,.08,0,0,0,.07,0,0,0,.08,0,.05,0,.07,0,0,0,.08,0,.05,0,.07,0,0,0,.08,0,0,0,.07,0,.05,0,.08,0,0,0,.07,0,.05,0,.08,0,0,0,.07,0,0,0,.08,0,.05,0,.07,0,0,0,.08,0,.05,0,.07,0,0,0,.08,0,0,0,.07,0,.05,0,.08,0,0,0,.07,0,.05,0,.08,0,0,0,.07c0,23.83,32.31,43.15,72.16,43.15s72.16-19.32,72.16-43.15c0,0,0-.05,0-.07s0,0,0-.08,0,0,0-.07,0-.05,0-.08,0,0,0-.07,0-.05,0-.08,0,0,0-.07,0,0,0-.08,0-.05,0-.07,0,0,0-.08,0-.05,0-.07,0,0,0-.08,0,0,0-.07,0-.05,0-.08,0,0,0-.07,0-.05,0-.08,0,0,0-.07,0,0,0-.08,0-.05,0-.07,0,0,0-.08,0-.05,0-.07,0,0,0-.08,0,0,0-.07,0-.05,0-.08,0,0,0-.07,0-.05,0-.08,0,0,0-.07,0,0,0-.08,0-.05,0-.07,0,0,0-.08,0-.05,0-.07,0,0,0-.08,0,0,0-.07,0-.05,0-.08,0,0,0-.07,0-.05,0-.08,0,0,0-.07,0,0,0-.08,0-.05,0-.07,0,0,0-.08,0-.05,0-.07,0,0,0-.08,0,0,0-.07,0-.05,0-.08,0,0,0-.07,0-.05,0-.08,0,0,0-.07,0,0,0-.08,0-.05,0-.07,0,0,0-.08,0-.05,0-.07,0,0,0-.08,0,0,0-.07,0-.05,0-.08,0,0,0-.07,0-.05,0-.08,0,0,0-.07,0,0,0-.08,0-.05,0-.07,0,0,0-.08,0-.05,0-.07,0,0,0-.08,0,0,0-.07,0-.05,0-.08,0,0,0-.07,0-.05,0-.08,0,0,0-.07,0,0,0-.08,0-.05,0-.07,0,0,0-.08,0-.05,0-.07,0,0,0-.08,0,0,0-.07,0-.05,0-.08,0,0,0-.07,0-.05,0-.08,0,0,0-.07,0,0,0-.08,0-.05,0-.07,0,0,0-.08,0-.05,0-.07,0,0,0-.08,0,0,0-.07,0-.05,0-.08,0,0,0-.07,0-.05,0-.08,0,0,0-.07,0,0,0-.08,0-.05,0-.07,0,0,0-.08,0-.05,0-.07,0,0,0-.08,0,0,0-.07,0-.05,0-.08,0,0,0-.07,0-.05,0-.08,0,0,0-.07,0,0,0-.08,0-.05,0-.07,0,0,0-.08S1034.38,546.4,1034.38,546.38Z" transform="translate(-841.99 -431.79)"/><ellipse class="cls-2" cx="120.24" cy="93.83" rx="72.16" ry="44.66"/><path d="M896.27,495.82a7.83,7.83,0,0,0-10.45-3.61c-7.07,3.45-13,4.31-17.72,2.54-5.86-2.19-8.4-8.05-8.66-8.64-5.25-10.5,3.16-18.72,4.17-19.65a7.82,7.82,0,0,0,.74-1,17.4,17.4,0,0,0,9.58-4c4.62-4.1,6.23-11.71,2.6-16.72-3.92-5.41-12.15-5.94-18.19-3.11a11.27,11.27,0,0,0-4.61,3.56,10.11,10.11,0,0,0-1,8.33c.12.43.36.82.51,1.23l-.07.05c-6.44,5.72-16.33,21.09-8,37.67.49,1.23,5.1,12.13,17.12,16.8a30.18,30.18,0,0,0,11,2c6,0,12.55-1.67,19.42-5A7.82,7.82,0,0,0,896.27,495.82Z" transform="translate(-841.99 -431.79)"/><path d="M1074.51,454.47a21.32,21.32,0,0,0,.08-3.66c-.34-3.36-1.83-6.76-4.65-8.61-2.16-1.42-4.83-1.78-7.41-2-4.81-.34-10.53.29-12.92,4.47a10,10,0,0,0-1,5.69,16.75,16.75,0,0,0,9,13.44,16.24,16.24,0,0,0,5.62,1.48c2.54,2.95,9.81,13.5-3.31,25.93-.07.08-8.24,8.26-23.29,2.09a7.83,7.83,0,1,0-5.94,14.48,43.74,43.74,0,0,0,16.65,3.48,34.36,34.36,0,0,0,23.58-8.94c8-7.53,12.09-15.92,12.29-25C1083.44,465.31,1076.51,456.7,1074.51,454.47Z" transform="translate(-841.99 -431.79)"/><path class="cls-1" d="M1032.83,490.08l-.12-.36c0-.12-.09-.23-.13-.35s-.09-.24-.13-.35l-.13-.36-.12-.35-.13-.36c0-.12-.09-.24-.13-.35l-.12-.36-.13-.36c0-.11-.09-.23-.13-.35s-.09-.23-.13-.35l-.12-.36c0-.12-.09-.23-.13-.35l-.13-.36c0-.12-.09-.23-.13-.35s-.08-.24-.12-.36-.09-.23-.13-.35l-.13-.36-.12-.35-.13-.36c0-.12-.09-.23-.13-.35s-.09-.24-.13-.35a3.3,3.3,0,0,0-.13-.37c0-.11-.08-.23-.12-.34l-.13-.36-.13-.36c0-.12-.08-.23-.12-.35l-.13-.36c0-.12-.09-.23-.13-.35l-.13-.36c0-.12-.08-.23-.12-.35s-.09-.23-.13-.35l-.13-.36-.12-.35-.13-.36c0-.12-.09-.23-.13-.35s-.09-.24-.13-.36-.08-.24-.12-.36-.09-.23-.13-.35l-.13-.36c0-.12-.09-.23-.12-.35l-.13-.36c0-.12-.09-.23-.13-.35s-.09-.23-.12-.35-.1-.24-.13-.37l-.13-.34-.13-.36c0-.12-.09-.24-.13-.36s-.08-.23-.12-.35-.09-.23-.13-.35c-6.07-19.7-32.52-34.53-64.24-34.53S904.06,452.64,898,472.34c0,.12-.09.23-.13.35s-.09.23-.12.35l-.13.36-.13.36c0,.11-.09.23-.12.34s-.1.25-.13.37-.09.23-.13.35-.09.23-.13.35l-.13.36c0,.12-.08.23-.12.35l-.13.36-.13.36c0,.11-.09.23-.12.34s-.09.25-.13.37-.09.23-.13.35L896,478c0,.11-.08.23-.12.35l-.13.36c0,.12-.09.23-.13.35s-.09.23-.12.35l-.13.36c0,.12-.09.23-.13.35l-.13.36c0,.12-.09.23-.12.35l-.13.36-.13.36c0,.11-.09.23-.12.34s-.09.25-.13.37-.09.23-.13.35-.09.23-.13.35-.09.24-.12.36-.09.23-.13.35l-.13.36c0,.12-.09.23-.13.35l-.12.36c0,.12-.09.23-.13.35l-.13.36c0,.12-.09.23-.12.35s-.09.24-.13.36-.09.23-.13.35-.09.24-.13.35l-.13.36-.12.36c0,.11-.09.23-.13.35l-.13.36-.12.35L892,489c0,.11-.09.23-.13.35s-.09.23-.13.35l-.12.36a26.78,26.78,0,0,0-1.56,8.91c0,23.83,32.31,43.15,72.16,43.15s72.16-19.32,72.16-43.15A26.78,26.78,0,0,0,1032.83,490.08Z" transform="translate(-841.99 -431.79)"/><path d="M949.26,477.68a4.71,4.71,0,1,0-4.71-4.71A4.71,4.71,0,0,0,949.26,477.68Z" transform="translate(-841.99 -431.79)"/><path d="M975.2,477.68a4.71,4.71,0,1,0-4.71-4.71A4.71,4.71,0,0,0,975.2,477.68Z" transform="translate(-841.99 -431.79)"/><path d="M990.12,487.8c.52-.6,1.13-1.06,1.62-1.69,1.47-1.95.3-5.05-1.62-6.18-2.32-1.35-4.69-.32-6.17,1.62a26.44,26.44,0,0,1-20.59,10.05,62.28,62.28,0,0,1-14.17-.94c-3.62-.79-7.29-2.51-8.22-6.4-1.36-5.64-10.06-3.25-8.7,2.4,3.17,13.18,19.17,14,30.15,14A39.23,39.23,0,0,0,968,500c0,.08,0,.14,0,.22,1.66,6.9,7.11,12.46,13.33,13.57,3.76.68,7.75.16,10.67-2.89a14.2,14.2,0,0,0,3.39-10.4C995,495.6,992.82,491.5,990.12,487.8Zm-1.47,14.66a9.29,9.29,0,0,1-.22,1c0,.15-.41,1-.09.33-.18.39-.36.77-.57,1.14s-.22.36,0,0c-.13.16-.26.32-.4.47-.4.55.37-.15-.22.23a5.54,5.54,0,0,1-1.77.77,10.17,10.17,0,0,1-2.19.05c-.12,0-1-.2-.28,0-.39-.09-.77-.17-1.15-.28a11.6,11.6,0,0,1-1.13-.39l-.43-.2a13.55,13.55,0,0,1-1.8-1.13,11.2,11.2,0,0,1-3.93-6c.87-.3,1.76-.56,2.6-.93.16.18.21.44.39.58l-.07-.06a19.36,19.36,0,0,1,2.9,3.55l0,0a2.74,2.74,0,0,0,.86,1.06,2.41,2.41,0,0,0,1.13.68,3.31,3.31,0,0,0,2.56-.38,3.83,3.83,0,0,0,1.53-2.27l.12-1a4.31,4.31,0,0,0-.46-1.92c-.74-1.15-1.51-2.28-2.34-3.34-.14-.17-.32-.28-.45-.45.65-.45,1.36-.79,2-1.3.09.16.06.33.17.48a24.33,24.33,0,0,1,2.56,4.49c.16.41.19.47.07.17.09.24.17.49.24.74s.2.75.28,1.13.1.51.14.76c0-.39,0-.38,0,.05s0,.67,0,1C988.73,501.65,988.64,502.44,988.65,502.46Z" transform="translate(-841.99 -431.79)"/></svg>